
        <svg xmlns="http://www.w3.org/2000/svg" xmlns:xlink="http://www.w3.org/1999/xlink" version="1.1" width="3186.9158878504672" 
        height="859.8130841121495" viewBox="0 0 3186.9158878504672 859.8130841121495">
			
			<g transform="scale(9.345794392523365) translate(10, 10)">
				<defs id="SvgjsDefs3075"></defs><g id="SvgjsG3076" featureKey="symbolFeature-0" transform="matrix(0.8,0,0,0.8,-7.271981811523438,-4)" fill="#396b5e"><path xmlns="http://www.w3.org/2000/svg" fill="#396b5e" d="M87.6,73.4c-6.7-2.2-13.2-4.8-15.5-9c-0.9-1.6-2.4-5-3.8-8.4c-0.9-2-1.7-3.8-2.3-5.2  c-0.8-1.7-1.2-3.5-1.1-5.3c0.2-5.5,2.7-15.2,3.2-17c0.1-0.1,0.2-0.1,0.2-0.3l4.7-13.7c0.4-1.2,0-2.5-1-3.2C69.4,9.6,62,5.1,50.8,5  c-1.3,0-2.4,0.9-2.8,2.1l-1.2,4.5c-3.6-1.3-8-2.3-13.4-2.3c-1.3,0-2.5,0.9-2.8,2.2l-3.3,13.1C23.8,37,19.2,41.9,15,46.2  c-1.6,1.6-3,3.2-4.2,5c-1.8,2.7-2.2,6.1-1.1,9.6c1.7,5.4,6.6,9.9,13.4,12.4c5.2,1.9,9.6,6.1,13.8,10.1c5.7,5.4,11.5,11,19.5,11.6  c0.6,0,1.2,0.1,1.8,0.1c7,0,12.5-3.3,15.1-6.8c0.5,0,0.9,0.1,1.4,0.1c8.8,0,15.3-5.5,16.1-9.7C91.3,76.1,90.1,74.3,87.6,73.4z   M49.1,7.4c0.2-0.8,0.9-1.3,1.7-1.3c10.9,0.1,18.1,4.4,20.6,6.3c0.6,0.4,0.9,1.2,0.6,1.9l-4.5,12.9c-2.3-1.7-6.4-3.4-12.1-5.2l1-2.9  c0.4-1.2,0-2.5-1-3.3c-1.3-1-3.9-2.6-7.5-4L49.1,7.4z M31.7,11.7c0.2-0.8,0.9-1.3,1.7-1.3h0c11.3,0.1,18.6,4.6,21.3,6.5  c0.6,0.5,0.9,1.3,0.6,2l-4.6,13.3c-5.5-4-19.2-7.2-22.2-7.9L31.7,11.7z M73.8,84.8c-0.8,4.2-8,9.8-17.2,9.1  c-7.6-0.6-13.3-6.1-18.9-11.3c-4.3-4.1-8.8-8.4-14.2-10.4c-6.5-2.4-11.1-6.6-12.8-11.7c-1-3.2-0.7-6.2,1-8.6  c1.2-1.7,2.6-3.2,4.1-4.8c4-4.1,8.9-9.3,12.4-21.6c2.9,0.7,17.1,4.1,22.1,8c-0.5,2-3.1,11.8-3.3,17.7c-0.1,2,0.3,4.1,1.2,6  c0.6,1.4,1.5,3.3,2.4,5.3c1.5,3.5,3.1,7,4,8.7c2.5,4.6,9.5,7.4,16.6,9.8C73.3,81.5,74.2,82.9,73.8,84.8z M89.8,78.3  c-0.8,3.9-7.2,9.1-15.7,8.8c0.4-0.7,0.7-1.4,0.8-2.1c0.5-2.5-0.7-4.4-3.3-5.2c-6.9-2.3-13.7-5-16-9.3c-0.9-1.6-2.4-5.2-3.9-8.6  c-0.9-2-1.7-3.9-2.4-5.3c-0.8-1.7-1.2-3.7-1.1-5.5c0.3-6.2,3.2-17.3,3.4-17.7l3.5-10.2c5.7,1.8,9.8,3.5,12,5.1  c-0.5,1.8-3,11.5-3.2,17.2c-0.1,2,0.3,4,1.2,5.9c0.6,1.3,1.4,3.2,2.3,5.2c1.5,3.4,3,6.8,3.9,8.5c2.4,4.5,9.2,7.2,16.1,9.5  C89.3,75.1,90.1,76.4,89.8,78.3z"></path></g><g id="SvgjsG3077" featureKey="textGroupContainer" transform="matrix(1,0,0,1,320,1)" fill="#113c4a"><rect xmlns="http://www.w3.org/2000/svg" y="0" height="1" width="1" opacity="0"></rect><rect xmlns="http://www.w3.org/2000/svg" y="0" x="-235" width="3" height="70"></rect></g><g id="SvgjsG3078" featureKey="nameFeature-0" transform="matrix(1.133439420329859,0,0,1.133439420329859,103.19626861819006,8.119625367970892)" fill="#596b66"><path d="M6.44 24.68 c-0.16 1.32 -0.44 2.88 -0.76 4.52 c0.88 -2.32 2.36 -5.36 3.56 -6.36 c0.68 -0.52 1.48 -0.76 2.32 -0.72 c2.8 0.12 4.04 2 3.52 4.68 c0 0.12 -0.04 0.24 -0.04 0.36 c0.8 -1.8 1.8 -3.6 2.72 -4.32 c0.64 -0.52 1.44 -0.76 2.28 -0.72 c2.8 0.12 4.04 2 3.56 4.68 c-0.48 2.52 -1.92 7.96 -0.92 10.28 c0.68 1.48 2.72 0.08 4.16 -4.84 c0 0 1.6 0.36 1.48 0.88 c-1 3.72 -2.36 5.72 -4.28 6.48 c-2.16 0.88 -4.88 0.12 -5.88 -2.12 c-1.68 -3.64 0.28 -8.24 0.6 -12.04 c0.08 -0.6 0 -0.96 -0.36 -0.6 c-1.8 1.72 -3.44 6.36 -4.68 10.2 c-0.24 1.2 -0.48 2.44 -0.8 3.68 c-0.72 2.84 -4.04 0 -4.04 -1.48 c0 -4.28 1.04 -7.72 1.4 -11.8 c0.04 -0.6 -0.04 -0.96 -0.4 -0.6 c-2.56 2.48 -4.88 11.12 -6.04 14.64 l0 0.16 c0 0.72 -4.28 0.8 -4 -3.28 c0.28 -4.04 1.32 -9.56 1.64 -13.48 c0.08 -1.28 5.32 -0.88 4.96 1.8 z M38.344 24.4 c0.88 3.92 -2.4 8.68 -5.84 8.04 c-0.2 3 0.36 5.64 2.24 5.76 c3 0.2 4.88 -3.36 5.56 -5.96 c0 -0.04 1.64 0.28 1.48 0.96 c-0.84 3.08 -2.2 5.6 -5.2 6.64 c-3.2 1.08 -7.64 -0.2 -8.84 -3.52 c-1.32 -3.72 0.12 -11 3.28 -13.6 c2.24 -1.8 6.56 -1.48 7.32 1.68 l0 0 z M33.784000000000006 26.439999999999998 c-0.48 1.24 -0.92 2.88 -1.12 4.44 c3.16 0.36 5.12 -6.52 3.56 -7.04 c-1.08 -0.36 -2.08 1.72 -2.44 2.6 z M42.128 22.88 c-0.04 -1.28 5.32 -0.88 4.96 1.8 c-0.36 2.88 -2.44 9.72 -1.24 12.4 c0.64 1.48 2.72 0.08 4.12 -4.84 c0 0 1.64 0.36 1.48 0.88 c-1 3.72 -2.36 5.72 -4.24 6.48 c-2.2 0.88 -4.88 0.12 -5.92 -2.12 c-1.68 -3.72 0.92 -11.84 0.84 -14.6 z M43.768 10.879999999999999 c-0.4 -2 5.92 -1.68 5.48 1.12 c-0.24 1.4 -0.88 3.64 -1.6 5.64 c-1.2 3.28 -4.08 2.44 -3.96 1.8 c0.52 -2.48 0.44 -6.72 0.08 -8.56 z M61.112 22.88 c-0.04 -1.28 5.32 -0.88 4.96 1.8 c-0.36 2.88 -2.48 9.72 -1.28 12.4 c0.68 1.48 2.72 0.08 4.16 -4.84 c0 -0.04 1.64 0.24 1.44 1.04 c-1 3.6 -2.36 5.56 -4.24 6.32 c-2.16 0.88 -4.88 0.12 -5.88 -2.12 c-0.2 -0.4 -0.32 -0.92 -0.44 -1.44 c-0.52 1.08 -1.12 2 -1.8 2.72 c-0.36 0.4 -0.76 0.68 -1.2 0.84 c-2.16 0.88 -4.84 0.12 -5.88 -2.12 c-1.68 -3.68 0.56 -13.16 4.2 -14.96 l0.36 -0.12 c1.16 -0.4 3.64 -0.32 4.96 1.16 c0.2 0.2 0.36 0.44 0.52 0.72 c0.08 -0.56 0.12 -1 0.12 -1.4 l0 0 z M57.592000000000006 36.56 c2 -4.28 2.76 -8.48 2.36 -10.68 c-0.4 -2.28 -1.96 -1.52 -2.76 0.28 c-1.48 3.16 -2.8 8.48 -1.68 10.92 c0.52 1.24 1.28 0.8 2.08 -0.52 z M80.96000000000001 22.88 c-0.04 -1.28 5.32 -0.88 4.96 1.8 c-0.36 2.88 -2.44 9.72 -1.24 12.4 c0.64 1.48 2.72 0.08 4.12 -4.84 c0 0 1.64 0.36 1.48 0.88 c-1 3.72 -2.36 5.72 -4.24 6.48 c-2.2 0.88 -4.88 0.12 -5.92 -2.12 c-1.68 -3.72 0.92 -11.84 0.84 -14.6 z M82.60000000000001 10.879999999999999 c-0.4 -2 5.92 -1.68 5.48 1.12 c-0.24 1.4 -0.88 3.64 -1.6 5.64 c-1.2 3.28 -4.08 2.44 -3.96 1.8 c0.52 -2.48 0.44 -6.72 0.08 -8.56 z M95.62400000000001 24.68 c-0.16 1.32 -0.44 2.88 -0.76 4.52 c0.88 -2.32 2.32 -5.36 3.56 -6.36 c0.68 -0.52 1.48 -0.76 2.32 -0.72 c2.8 0.12 4.04 2 3.52 4.68 c-0.48 2.52 -1.92 7.96 -0.88 10.28 c0.68 1.48 2.72 0.08 4.16 -4.84 c0 0 1.6 0.36 1.48 0.88 c-1 3.68 -2.4 5.72 -4.28 6.48 c-2.16 0.88 -4.88 0.12 -5.88 -2.12 c-1.68 -3.64 0.28 -8.24 0.6 -12.04 c0.04 -0.6 -0.04 -0.96 -0.4 -0.6 c-2.56 2.48 -4.92 11.12 -6.04 14.64 l0 0.16 c0 0.72 -4.28 0.76 -4 -3.28 s1.32 -9.56 1.64 -13.48 c0.08 -1.28 5.32 -0.88 4.96 1.8 z M110.68800000000002 13.96 c0.04 -1.28 5.68 -0.64 5.4 2.04 c-0.16 1.68 -0.76 4.2 -1.36 6.88 c2.16 -0.2 3.88 -0.4 4.16 -0.52 c0.84 -0.4 0.48 2.44 -0.8 2.52 c-0.24 0 -1.88 0.08 -3.88 0.16 c-1.08 4.8 -2.04 9.8 -1.04 12.04 c0.64 1.48 2.72 0.08 4.12 -4.84 c0 -0.04 1.64 0.32 1.48 0.92 c-1 3.68 -2.36 5.68 -4.24 6.44 c-2.2 0.88 -4.88 0.12 -5.92 -2.08 c-1.12 -2.48 -0.48 -7.36 0.36 -12.32 c-1.56 0.04 -2.76 0.08 -3.04 0.04 c-1.56 -0.2 -1.24 -1.56 -0.96 -1.56 c0.4 0 2.16 -0.16 4.32 -0.32 c0.64 -3.6 1.32 -7.08 1.4 -9.4 z M128.752 24.4 c0.88 3.92 -2.4 8.68 -5.84 8.04 c-0.2 3 0.36 5.64 2.24 5.76 c3 0.2 4.88 -3.36 5.56 -5.96 c0 -0.04 1.64 0.28 1.48 0.96 c-0.84 3.08 -2.2 5.6 -5.2 6.64 c-3.2 1.08 -7.64 -0.2 -8.84 -3.52 c-1.32 -3.72 0.12 -11 3.28 -13.6 c2.24 -1.8 6.56 -1.48 7.32 1.68 l0 0 z M124.19200000000001 26.439999999999998 c-0.48 1.24 -0.92 2.88 -1.12 4.44 c3.16 0.36 5.12 -6.52 3.56 -7.04 c-1.08 -0.36 -2.08 1.72 -2.44 2.6 z M132.536 22.88 c-0.04 -1.28 5.32 -0.88 4.96 1.8 c-0.36 2.88 -2.44 9.72 -1.24 12.4 c0.64 1.48 2.72 0.08 4.12 -4.84 c0 0 1.64 0.36 1.48 0.88 c-1 3.72 -2.36 5.72 -4.24 6.48 c-2.2 0.88 -4.88 0.12 -5.92 -2.12 c-1.68 -3.72 0.92 -11.84 0.84 -14.6 z M134.17600000000002 10.879999999999999 c-0.4 -2 5.92 -1.68 5.48 1.12 c-0.24 1.4 -0.88 3.64 -1.6 5.64 c-1.2 3.28 -4.08 2.44 -3.96 1.8 c0.52 -2.48 0.44 -6.72 0.08 -8.56 z M142.44 26.04 c-1.12 -0.76 -1.6 -3.04 -1.08 -4.32 c0.92 -2.24 4.68 -1.88 4.36 -0.44 c-0.72 3.44 1.28 4.32 2.12 2.12 c0.52 -1 5.2 0.28 4.88 2.8 c-0.2 1.56 -2.8 11.08 -0.4 11.48 c0.92 0.16 2.4 -1.56 3.52 -5.4 c0.04 -0.2 0.96 0.4 1.52 0.64 c-1 3.84 -2.4 5.96 -4.32 6.72 c-2.16 0.88 -4.88 0.12 -5.88 -2.12 c-1.32 -2.84 -0.12 -7.96 0.48 -11.6 c-0.6 0.68 -1.96 1.12 -3.48 0.8 c-0.24 1.2 -1.04 4.36 -1.84 6.88 c-0.4 1.32 -2.04 0.72 -1.92 0.4 c1 -2.64 1.68 -6.24 2.04 -7.96 z M166.98399999999998 22.88 c-0.04 -1.28 5.32 -0.88 4.96 1.8 c-0.36 2.88 -2.48 9.72 -1.28 12.4 c0.68 1.48 2.72 0.08 4.16 -4.84 c0 -0.04 1.64 0.24 1.44 1.04 c-1 3.6 -2.36 5.56 -4.24 6.32 c-2.16 0.88 -4.88 0.12 -5.88 -2.12 c-0.2 -0.4 -0.32 -0.92 -0.44 -1.44 c-0.52 1.08 -1.12 2 -1.8 2.72 c-0.36 0.4 -0.76 0.68 -1.2 0.84 c-2.16 0.88 -4.84 0.12 -5.88 -2.12 c-1.68 -3.68 0.56 -13.16 4.2 -14.96 l0.36 -0.12 c1.16 -0.4 3.64 -0.32 4.96 1.16 c0.2 0.2 0.36 0.44 0.52 0.72 c0.08 -0.56 0.12 -1 0.12 -1.4 l0 0 z M163.464 36.56 c2 -4.28 2.76 -8.48 2.36 -10.68 c-0.4 -2.28 -1.96 -1.52 -2.76 0.28 c-1.48 3.16 -2.8 8.48 -1.68 10.92 c0.52 1.24 1.28 0.8 2.08 -0.52 z"></path></g>
			</g>
		</svg>
	